<?xml version="1.0" encoding="UTF-8"?><svg id="Capa_2" xmlns="http://www.w3.org/2000/svg" viewBox="0 0 709.87 946.5"><defs><style>.cls-1{fill:none;}.cls-1,.cls-2{stroke:#000;stroke-miterlimit:10;}.cls-2{fill:#fff;}</style></defs><path class="cls-1" d="m357.18,292.31c.74,3.59,1.06,6.76,1.18,9.41.07,1.63.03,2.17,0,7.06-.02,3.14,0,6.27,0,9.41v11.53c.02,4.38.04,6.27,0,9.88-.05,4.1-.08,6.18-.29,7.65-.56,3.81-1.67,6.78-2.59,9.24-.66,1.78-1.25,3.05-2.41,5.59-2.76,6.02-3.9,7.38-4.59,8.12-.66.71-1.92,1.94-3.76,3.06-1.16.7-2.59,1.54-4.65,1.88-1.41.23-2.61.14-3.43.02-1.38-.43-3.22-1.04-5.34-1.91-2.04-.84-5.35-2.2-9.24-4.71-.98-.63-3.89-2.55-7.24-5.65-2.83-2.62-4.99-5.17-6.59-7.29"/><path class="cls-1" d="m180,655.9c-.2-1.38-.36-3.44,0-5.88.23-1.53.54-3.61,1.88-5.88,1.45-2.44,3.38-3.9,4.71-4.71l8-3.53,6.82-3.53c1.4-.72,3.19-1.81,5.06-3.41,2.24-1.92,3.58-3.71,3.88-4.12,1.45-1.97,2.41-3.93,3.06-5.65.27-.8.55-1.6.82-2.4.14-.66.35-1.16.53-1.5.15-.29.28-.48.21-.68-.1-.27-.48-.34-1.01-.47-.43-.11-1.01-.27-1.72-.53-.18-3.97-.27-8.08-.25-12.31.08-14.39,1.48-27.56,3.53-39.29l3.76-23.76c2.54-19.33,4.98-31.05,6.82-38.35,1.01-4.01,2.81-10.51,4.47-19.76.54-3,.94-5.65,1.88-10.35.13-.65,1.36-6.78,2.82-12.71,2.65-10.72,6.05-20.59,8.24-26.59l11.35-27.47c.92-2.24,2.5-5.11,5.24-7.53,1.81-1.6,3.26-2.25,3.65-2.41,2.22-.95,4.15-.99,5.24-1,2.31-.02,3.93.45,6.53,1.24,2.19.66,5.13,1.57,8.71,3.53,3.88,2.13,3.86,2.96,5.88,3.29,2.97.48,6.59-.72,8.24-3.29.82-1.28.89-2.48.94-5.18.12-5.92.18-8.89,0-10.59-.61-5.65-1.29-17.5-2.12-34.12.19-.26.46-.63.79-1.07,2.11-2.81,3.39-4.14,3.21-4.35-.2-.22-1.6,1.53-3.76,1.65-2.06.11-3.66-1.34-4-1.65-.39-.36-1.64-1.58-2.59-6.59-.33-1.75-.18-1.61-.47-10.59-.06-1.76-.12-3.41.94-4.94.24-.34,1.12-1.63,2.59-1.88,1.78-.31,3.82,1,4.94,3.29.39-2.94.59-5.42.71-7.29.34-5.6-.03-7.22-.24-8-.7-2.64-1.94-4.47-2.59-5.41-2.23-3.24-3.55-3.05-5.88-6.12-1.31-1.72-3.06-4.02-3.29-7.29-.29-4.04,1.89-7.04,2.59-8,.6-.82,2.85-3.83,6.82-4.94,1.25-.35,3.2-.24,7.06,0,4.26.26,6.39.39,9,.88,2.82.53,2.66.76,7.47,1.94,5.02,1.23,4.76.86,8.71,1.88,1.63.42,4.7,1.26,9.18,2.35,2.7.66,4.03.95,5.41.24,1.97-1.02,2.65-3.39,2.82-4,.45-1.59.26-2.88,0-4.47-.39-2.41-1.17-4.12-1.88-5.65-.71-1.54-1.83-3.61-3.53-5.88l-2.82-3.06,5.18,3.76c2.77,1.52,5.04,2.72,6.59,3.53,5.8,3.04,7.14,3.55,10,5.41,2.51,1.64,4.41,3.15,5.71,4.18,2.49,1.98,4.12,3.5,5.47,4.76,4.19,3.92,4.7,5.04,4.94,5.65.29.74,1.44,3.63,0,5.88-.97,1.52-2.65,2.02-3.76,2.35-2.47.74-4.59.35-5.53.18-3.71-.68-8.03-1.4-13.06-2.29-4.91-.99-8.96-.83-11.65-.53-2.08.24-4.72.56-7.88,1.94-2.39,1.05-4.2,2.31-5.41,3.29-1.61,1.3-2.88,2.53-3.76,3.53"/><path class="cls-1" d="m276.48,496.71l-5.79-5.69c4.6,3.96,7.53,7.85,9.32,10.64,2.17,3.37,3.43,6.27,5.41,10.82,2.19,5.04,3.42,8.84,3.82,10.12.78,2.46,1.62,5.16,2.29,8.84.15.79.43,2.41.94,7.64.77,7.88.45,7.4.94,11.29.53,4.23,1.16,6.66,1.41,11.76.1,2.01.14,4.23-1.24,6.24-1,1.46-2.34,2.22-3.24,2.71-2.79,1.53-4.12.8-6.88,1.94-2.54,1.05-4.07,2.76-5.12,3.94-1.47,1.65-2.32,3.25-4,7.53-1.05,2.67-2.34,6.16-3.67,10.35-1.62,5.05-3.16,10.88-4.33,17.41-1.02,5.71-1.6,11.01-1.88,15.76.8.78,2.05,1.92,3.76,3.06,1.56,1.04,2.23,1.24,6.24,3.24,2.64,1.32,2.31,1.22,5.53,2.82,2.53,1.27,2.12,1.02,5.41,2.65,3.09,1.53,3.65,1.84,4.94,2.35,1.84.73,3.41,1.16,4.47,1.41.86-2.67,1.47-4.93,1.88-6.59.5-2.01.76-3.07.94-4.47.12-.96.15-1.6.18-2.11.15-2.34.54-3.69,1.23-6.95,1.16-5.47.74-4.95,1.53-7.88.44-1.64.91-3.07,1.76-5.65.51-1.53.86-2.54,1.29-3.65.33-.85.78-1.99,1.29-3.06,1.23-2.54,2.66-4.28,3.41-5.18,1.63-1.95,3.09-3.14,6-5.53,2.33-1.91,2.84-2.11,4.24-3.53.5-.51,1.85-1.92,3.29-4,.75-1.08,1.77-2.56,2.65-4.65.69-1.64,1.01-3.25,1.65-6.47.59-2.98.89-4.48,1-6.18.2-3.06-.56-4.47.47-6.47.29-.56.87-1.65,2-2,.58-.18,1.41.04,3.06.47,1.71.45,2.23.78,2.59,1.06.26.2.72.57,1.06,1.18.62,1.11.27,2.06.24,4.24-.03,1.46.12,1.25.12,2.71-.01,2.2-.36,3.89-.59,4.94-.35,1.65-.78,2.86-1.65,5.29-.68,1.92-.68,1.69-1.41,3.76-.97,2.74-.92,2.98-1.49,4.04-.74,1.36-1.84,2.79-2.04,3.05-.26.34-.5.64-.72.9-.65.76-1.31,1.48-2.14,2.29-1.1,1.07-1.56,1.39-2.31,2.07-1.45,1.33-2.34,2.51-3.29,3.76-1.36,1.79-1.54,2.39-3.18,4.94-2.08,3.24-2.28,3.07-3.41,4.94-1.19,1.98-1.48,3.02-3.38,8.18-2.63,7.11-2.42,5.99-3.09,8.18-.7,2.3-1.78,5.88-2.35,10.59-.46,3.78-.15,4.7-.71,9.65-.31,2.72-.68,4.92-.94,6.35,2.59,1.37,6.48,3.5,11.06,6.35,6.16,3.84,7.47,5.19,15.79,11.03,8.43,5.92,14.57,10.19,23.03,14.62,4.13,2.16,7.61,3.73,9.88,4.71l2.35-7.53c1.12-3.08,2.67-7.61,4.24-13.18,2.1-7.49,3.2-13.51,5.32-25.26,2.4-13.3,3.73-22.56,4.09-25.09,1.34-9.45,2.02-14.31,2.35-20.71.37-6.97.08-10.34-.09-18.31-.42-19.97.91-20.48.44-37.1-.34-12.1-1.31-21.44-1.94-27.35-1.1-10.36-2.53-19.83-4.06-28.29-1.85-9.96-4.35-18.21-6.59-24.47-1.54-4.3-3.3-8.28-6.82-16.24,0,0-6.35-14.32-10.59-19.06-.24-.27-1.19-1.3-2.35-2.82-1.05-1.37-1.76-2.46-2.85-4.15-1.21-1.86-1.82-2.82-2.32-3.85-.74-1.53-1.17-2.86-1.41-3.76,1.33.57,3.2,1.51,5.18,3.06,1.76,1.38,2.29,2.21,3.76,3.06,1.23.71,3.17,1.47,6.12,1.41-.48-1.19-1.08-2.96-1.41-5.18-.24-1.61-.24-2.9-.24-5.41,0-2.25.02-6.33.03-7.63.03-1.7.15-3.56.4-5.56.3-2.43.74-4.63,1.22-6.57-.53.36-1.26.85-2.12,1.41-.8.53-2.24,1.45-4.47,2.82-3.77,2.31-3.38,1.93-6.35,3.76-2.45,1.51-3.22,2.08-4.91,2.81-1.45.62-2.7.98-3.56,1.19v-5.41c.02-2.48.02-4.99,0-7.53-.04-4.48-.15-8.87-.31-13.15t0,0h0s.1,2.04.31,6.09"/><path class="cls-1" d="m214.29,614.53c.93.31,2.28.71,3.94,1,1.58.28,2.91.36,5.94.41,1.89.03,4.27.04,7.06,0h14.35v-8.24c-.29-4.53-.37-9.67,0-15.29.32-4.92.92-9.41,1.65-13.41l3.53-18.82,4.24-16,5.65-21.18,4.24-15.06,4.24-13.41,1.04-3.11,2.26-6.78c2.35-7.22,4.71-14.43,7.06-21.65"/><path class="cls-1" d="m223.06,673.49c.31-.7.81-1.64,1.65-2.59,1.1-1.25,2.29-1.97,3.06-2.35l4-1.88c.75-.41,1.88-1.09,3.14-2.09.85-.68,1.14-1.02,4.86-4.97,1.03-1.09,2-2.24,3.06-3.29.91-.91,1.36-1.3,1.88-2.12.81-1.28,1.06-2.47,1.18-3.06.07-.32.37-1.93,0-4-.22-1.25-.62-2.17-1.41-4-.45-1.04-.87-1.88-1.16-2.46-.87-1.96-1.74-3.96-2.6-6.01-.73-1.75-1.44-3.47-2.12-5.18-.53-1.26-1.12-3.01-1.41-5.18-.29-2.17-.19-4.03,0-5.41"/><path class="cls-1" d="m223.06,660.78c.08-.15,1.21-2.36,0-4.47-.61-1.06-1.69-1.89-2.82-2.12-.34-.07-.89-.07-2-.06-.78,0-1.6.03-2,.06-1.96.14-4.17,1.07-5.18,1.53-1.49.8-3.18,1.84-4.94,3.18-1.91,1.45-3.47,2.92-4.71,4.24l-4,4.47c-.83.9-1.72,1.99-2.59,3.29-1.2,1.8-2.02,3.51-2.59,4.94-.39,1.1-.78,2.2-1.18,3.29"/><path class="cls-1" d="m205.18,640.55c-.69,1-1.61,2.15-2.82,3.29-2.09,1.97-4.22,3.15-5.78,3.86-1.28.64-3.05,1.7-4.81,3.44-1.45,1.44-2.42,2.88-3.06,4-.95,1.37-1.64,2.59-2.12,3.53-1.23,2.4-1.79,4.3-2.2,5.72-.65,2.25-.67,3.13-.62,3.81.09,1.16.43,2.09.71,2.71"/><path class="cls-1" d="m293.17,541.72h6.12l7.53,2.35,8,2.82,9.41,3.76,9.65,5.18s5.18,2.35,5.88,3.06,4.71,3.29,4.71,3.29l7.29,4.47s5.41,2.82,6.59,3.53,8.24,6.35,8.24,6.35l6.12,5.18,4.94,4,4,4.24"/><polyline class="cls-1" points="381.64 526.94 414.79 495.37 418.68 496.43 434.45 514.03 441.03 521.37 383.03 580.9"/><path class="cls-1" d="m424.08,501.3c.57-1.68,1.42-5.04.4-8.74-.33-1.19-.83-2.91-2.35-4.24-.68-.59-1.4-.91-2.82-1.53-.95-.41-2.53-1.04-5.18-1.76-3.14-.86-3.84-.77-4.71-1.65-.91-.92-1.18-2.04-1.41-3.06-.42-1.81-.05-2.6,0-5.18.03-1.72.06-3.36-.41-5.06-.33-1.19-1.1-3.08-3.12-5.06-.53-.74-1.14-1.72-1.65-2.94-.41-.99-.67-1.9-.83-2.67,3.02-.06,6.04-.12,9.06-.19,1.01,2.21,2.18,3.81,3.06,4.86,1.09,1.29,2.04,2.08,3.76,3.53,1.66,1.39,2.76,2.31,4.47,3.29,2.13,1.22,3.88,1.77,4.24,1.88,1.96.6,3.3,1.02,4.88.82,2.87-.35,4.8-2.51,6.88-4.82,1.13-1.26,1.37-1.77,3.53-4.71,1.67-2.27,3.08-4.08,4-5.24,2.07.86,6.58,2.37,12,1.24,2.11-.44,3.85-1.17,5.18-1.88"/><path class="cls-1" d="m437.42,512.67c1.32-1.36,3.41-3.26,6.35-4.94,3.37-1.92,4.78-1.8,6.88-3.71,1.17-1.07,2.19-3.1,4.18-7.12,3.78-7.65,3.91-7.94,4.47-8.94,2.48-4.44,3.73-6.66,5.88-8.47.8-.67,1.06-.76,9.18-4.47,5.16-2.36,6.51-2.99,8.47-4.24,2.54-1.61,4.14-2.63,5.65-4.47,1.08-1.32,3.11-4.3,3.47-9.35"/><line class="cls-1" x1="551.7" y1="455.23" x2="368.41" y2="458.99"/><path class="cls-1" d="m391.53,458.51c.4-3.24,1.14-7.48,2.59-12.32,1.06-3.56,2.3-7.6,4.94-12.24,2.29-4.02,4.49-6.46,8-10.35,4.41-4.89,8.1-8.99,14.12-12.71,4.33-2.68,8.37-4.24,11.41-5.18,5.38-1.18,10.01-1.68,13.53-1.88,2.24-.13,5.44-.31,9.65,0,3.77.28,7.94.58,12.94,2.35,3.68,1.3,6.03,2.77,10.24,5.47,4.33,2.78,7.33,5.34,9.44,7.15,2.87,2.46,4.9,4.2,7.32,7.06,3.04,3.58,4.84,6.74,5.51,7.96.97,1.76,1.61,3.18,2.25,4.66.71,1.65,1.75,4.08,2.88,7.47.93,2.78,1.97,6.33,2.83,10.54"/><path class="cls-1" d="m444.19,403.98c-.13-.42-1.03-3.48.76-6.02.91-1.28,2.13-1.91,2.59-2.12.99-.45,1.86-.49,3.62-.59,1.92-.1,2.87-.16,4.06.26.34.12,1.4.53,2.44,1.5,1.97,1.84,2.27,4.21,2.35,4.94.09.78.05,1.43,0,1.88"/><path class="cls-1" d="m455.68,466.15c2.36-1.97,4.36-2.49,5.76-2.59,1.64-.12,2.23.35,4,0,1.2-.23,2.29-.86,4.47-2.12,2.74-1.58,3.71-2.53,4-2.82.76-.77,1.3-1.5,1.65-2.03"/><path class="cls-1" d="m467.04,466.5c1.38-1.08,3.54-2.49,6.44-3.26,2.77-.74,4.16-.34,6.53-.93,2-.49,4.74-1.69,7.68-4.89"/><path class="cls-1" d="m402.67,438.43l98.35-1.65c1.19-.07,2.37-.13,3.56-.2"/><path class="cls-1" d="m425.89,443.14c26.28-.63,52.55-1.26,78.83-1.89"/><line class="cls-2" x1="422.71" y1="451.84" x2="508.54" y2="450.14"/></svg>