<?xml version="1.0" encoding="UTF-8"?>
<svg width="180px" height="150px" viewBox="0 0 180 150" version="1.1" xmlns="http://www.w3.org/2000/svg" xmlns:xlink="http://www.w3.org/1999/xlink">
    <!-- Generator: Sketch 57.1 (83088) - https://sketch.com -->
    <title>dmstk-logo-sprite</title>
    <desc>Created with Sketch.</desc>
    <g id="dmstk-logo-sprite" stroke="none" stroke-width="1" fill="none" fill-rule="evenodd">
        <path d="M46.2186046,132.916279 L56.955814,132.916279 L56.955814,129.955814 L49.2232558,129.955814 L49.2232558,126.906977 L55.4976744,126.906977 L55.4976744,123.946512 L49.2232558,123.946512 L49.2232558,120.897674 L56.955814,120.897674 L56.955814,117.937209 L46.2186046,117.937209 L46.2186046,132.916279 L46.2186046,132.916279 Z M53.2883721,116.037209 L55.2325581,113.430233 L53.5976745,111 L51.5651163,113.739535 L49.5325581,111 L47.8976745,113.430233 L49.8418605,116.037209 L53.2883721,116.037209 L53.2883721,116.037209 Z M83.1581395,117.893023 L86.2069767,117.893023 L86.2069767,132.960465 L83.1581395,132.960465 L83.1581395,117.893023 L83.1581395,117.893023 Z M68.9744186,120.941861 L73.7465116,120.941861 L73.7465116,132.916279 L76.8395348,132.916279 L76.8395348,120.941861 L81.6116276,120.941861 L81.6116276,117.893023 L69.0186046,117.893023 L69.0186046,120.941861 L68.9744186,120.941861 Z M108.609302,117.893023 L105.339535,117.893023 L99.9930231,132.960465 L103.174419,132.960465 L104.323256,129.77907 L109.669767,129.77907 L110.818605,132.960465 L114,132.960465 L108.609302,117.893023 L108.609302,117.893023 Z M105.339535,126.774419 L106.974419,122.223256 L108.609302,126.774419 L105.339535,126.774419 L105.339535,126.774419 Z M21.5186047,117.672093 C17.2325581,117.672093 13.7418605,121.162791 13.7418605,125.448837 C13.7418605,129.734884 17.2325581,133.225581 21.5186047,133.225581 C25.8046512,133.225581 29.2953489,129.734884 29.2953489,125.448837 C29.2953489,121.162791 25.8046512,117.672093 21.5186047,117.672093 L21.5186047,117.672093 Z M21.5186047,130.044186 C18.9558139,130.044186 16.8790697,127.967442 16.8790697,125.448837 C16.8790697,122.930233 18.9558139,120.853488 21.5186047,120.853488 C24.0813953,120.853488 26.1581395,122.930233 26.1581395,125.448837 C26.1139535,127.967442 24.0372093,130.044186 21.5186047,130.044186 L21.5186047,130.044186 Z M5.39069768,117.848837 L0,117.848837 L0,132.872093 L5.39069768,132.872093 C9.54418607,132.872093 12.9465116,129.513953 12.9465116,125.360465 C12.9023256,121.206977 9.54418607,117.848837 5.39069768,117.848837 L5.39069768,117.848837 Z M5.39069768,129.823256 L3.00465116,129.823256 L3.00465116,120.986047 L5.39069768,120.986047 C7.82093021,120.986047 9.85348838,122.974419 9.85348838,125.404651 C9.85348838,127.834884 7.86511631,129.823256 5.39069768,129.823256 L5.39069768,129.823256 Z M37.5139535,124.962791 L33.6697674,117.893023 L30.2232558,117.893023 L30.2232558,132.960465 L33.272093,132.960465 L33.272093,123.460465 L37.5139535,131.237209 L41.7558139,123.460465 L41.7558139,132.960465 L44.8488372,132.960465 L44.8488372,117.893023 L41.4023256,117.893023 L37.5139535,124.962791 L37.5139535,124.962791 Z M99.7720934,117.893023 L96.0604647,117.893023 L91.0674422,124.52093 L91.0674422,117.893023 L88.062791,117.893023 L88.062791,132.960465 L91.0674422,132.960465 L91.0674422,129.690698 L92.5697674,127.65814 L96.1046514,132.916279 L99.8162793,132.916279 L94.4697676,125.006977 L99.7720934,117.893023 L99.7720934,117.893023 Z M66.1023255,124.874419 C64.9534884,124.255814 64.0255814,123.990698 63.2302326,123.813953 C62.4790697,123.637209 61.9046511,123.504651 61.4186047,123.106977 C61.1976744,122.886046 60.7116279,122.046512 61.2860465,121.295349 C61.6395349,120.853488 62.3023256,120.544186 63.0534884,120.544186 C63.7604651,120.544186 64.3790698,120.809302 64.7767442,121.206977 C65.2627907,121.737209 65.4837209,122.17907 65.4837209,122.17907 L65.572093,122.355814 L68.4,121.206977 L68.4,121.162791 C68.3116279,120.897674 67.9581395,119.837209 66.7651163,118.82093 C65.8372093,118.025581 64.5116279,117.583721 63.1418605,117.583721 C61.4186047,117.583721 59.9162791,118.202326 58.9883721,119.306977 C58.016279,120.455814 57.6627907,121.825581 57.972093,123.151163 C58.2813953,124.476744 59.2093023,125.537209 60.4906977,126.155814 C61.5069767,126.641861 62.1255814,126.774419 62.744186,126.951163 C63.2302326,127.083721 63.716279,127.216279 64.3790698,127.481395 C65.0860465,127.790698 65.4395349,128.276744 65.3511628,128.851163 C65.2186046,129.690698 64.2906976,130.22093 63.5395349,130.265116 L63.2302326,130.265116 C62.3023256,130.265116 61.0651163,129.955814 60.4465116,128.54186 L57.6186046,129.734884 C57.8395349,130.22093 58.3255814,131.369767 59.6069768,132.209302 C60.5790698,132.872093 61.9046511,133.269767 63.2302326,133.269767 C65.4837209,133.269767 67.3395349,132.253488 68.1790697,130.486046 C69.0627907,128.409302 68.3116279,126.111628 66.1023255,124.874419 L66.1023255,124.874419 Z" id="logo-mobile" fill="#FFFFFF" fill-rule="nonzero"></path>
        <path d="M76.2193798,85.0294574 L90.4414729,85.0294574 L90.4414729,81.1081395 L80.1992248,81.1081395 L80.1992248,77.0697674 L88.5100775,77.0697674 L88.5100775,73.1484496 L80.1992248,73.1484496 L80.1992248,69.1100775 L90.4414729,69.1100775 L90.4414729,65.1887597 L76.2193798,65.1887597 L76.2193798,85.0294574 L76.2193798,85.0294574 Z M85.5837209,62.672093 L88.1589147,59.2189922 L85.9934109,56 L83.3011628,59.6286822 L80.6089147,56 L78.4434109,59.2189922 L81.0186047,62.672093 L85.5837209,62.672093 L85.5837209,62.672093 Z M125.148062,65.1302326 L129.186434,65.1302326 L129.186434,85.0879845 L125.148062,85.0879845 L125.148062,65.1302326 L125.148062,65.1302326 Z M106.360853,69.1686047 L112.681783,69.1686047 L112.681783,85.0294574 L116.778682,85.0294574 L116.778682,69.1686047 L123.099612,69.1686047 L123.099612,65.1302326 L106.41938,65.1302326 L106.41938,69.1686047 L106.360853,69.1686047 Z M158.85969,65.1302326 L154.528682,65.1302326 L147.446899,85.0879845 L151.660853,85.0879845 L153.182558,80.874031 L160.264341,80.874031 L161.786047,85.0879845 L166,85.0879845 L158.85969,65.1302326 L158.85969,65.1302326 Z M154.528682,76.894186 L156.694186,70.8658915 L158.85969,76.894186 L154.528682,76.894186 L154.528682,76.894186 Z M43.5027132,64.8375969 C37.8255814,64.8375969 33.201938,69.4612403 33.201938,75.1383721 C33.201938,80.8155039 37.8255814,85.4391473 43.5027132,85.4391473 C49.179845,85.4391473 53.8034884,80.8155039 53.8034884,75.1383721 C53.8034884,69.4612403 49.179845,64.8375969 43.5027132,64.8375969 L43.5027132,64.8375969 Z M43.5027132,81.2251938 C40.1081395,81.2251938 37.3573643,78.4744186 37.3573643,75.1383721 C37.3573643,71.8023256 40.1081395,69.0515504 43.5027132,69.0515504 C46.8972868,69.0515504 49.648062,71.8023256 49.648062,75.1383721 C49.5895349,78.4744186 46.8387597,81.2251938 43.5027132,81.2251938 L43.5027132,81.2251938 Z M22.1403101,65.0717054 L15,65.0717054 L15,84.9709302 L22.1403101,84.9709302 C27.6418605,84.9709302 32.1484496,80.5228682 32.1484496,75.0213178 C32.0899225,69.5197674 27.6418605,65.0717054 22.1403101,65.0717054 L22.1403101,65.0717054 Z M22.1403101,80.9325581 L18.979845,80.9325581 L18.979845,69.2271318 L22.1403101,69.2271318 C25.3593023,69.2271318 28.0515504,71.8608527 28.0515504,75.079845 C28.0515504,78.2988372 25.4178295,80.9325581 22.1403101,80.9325581 L22.1403101,80.9325581 Z M64.6895349,74.4945736 L59.5976744,65.1302326 L55.0325581,65.1302326 L55.0325581,85.0879845 L59.0709302,85.0879845 L59.0709302,72.5046512 L64.6895349,82.8054264 L70.3081395,72.5046512 L70.3081395,85.0879845 L74.4050388,85.0879845 L74.4050388,65.1302326 L69.8399225,65.1302326 L64.6895349,74.4945736 L64.6895349,74.4945736 Z M147.154264,65.1302326 L142.237984,65.1302326 L135.624419,73.9093023 L135.624419,65.1302326 L131.644574,65.1302326 L131.644574,85.0879845 L135.624419,85.0879845 L135.624419,80.7569767 L137.614341,78.0647287 L142.296512,85.0294574 L147.212791,85.0294574 L140.131008,74.5531008 L147.154264,65.1302326 L147.154264,65.1302326 Z M102.556589,74.3775194 C101.034884,73.5581395 99.805814,73.2069767 98.7523256,72.9728682 C97.7573643,72.7387597 96.9965116,72.5631783 96.3527132,72.0364341 C96.0600775,71.7437984 95.4162791,70.6317829 96.1771318,69.6368217 C96.6453488,69.0515504 97.5232558,68.6418605 98.5182171,68.6418605 C99.4546512,68.6418605 100.274031,68.9930233 100.800775,69.5197674 C101.444574,70.222093 101.737209,70.8073643 101.737209,70.8073643 L101.854264,71.0414729 L105.6,69.5197674 L105.6,69.4612403 C105.482946,69.1100775 105.014729,67.7054264 103.434496,66.3593023 C102.205426,65.305814 100.449612,64.7205426 98.6352713,64.7205426 C96.3527132,64.7205426 94.3627907,65.5399225 93.1337209,67.0031008 C91.846124,68.5248062 91.377907,70.3391473 91.7875969,72.0949612 C92.1972868,73.8507752 93.4263566,75.2554264 95.1236434,76.0748062 C96.4697674,76.7186047 97.2891473,76.894186 98.1085271,77.1282946 C98.7523256,77.303876 99.396124,77.4794574 100.274031,77.8306202 C101.210465,78.2403101 101.678682,78.8841085 101.561628,79.6449612 C101.386047,80.7569767 100.156977,81.4593023 99.1620155,81.5178295 L98.7523256,81.5178295 C97.5232558,81.5178295 95.8844961,81.1081395 95.0651163,79.2352713 L91.3193798,80.8155039 C91.6120155,81.4593023 92.255814,82.9810078 93.9531008,84.0930233 C95.2406977,84.9709302 96.9965116,85.4976744 98.7523256,85.4976744 C101.737209,85.4976744 104.195349,84.1515504 105.307364,81.8104651 C106.477907,79.0596899 105.482946,76.0162791 102.556589,74.3775194 L102.556589,74.3775194 Z" id="logo-active" fill="#F02D00" fill-rule="nonzero"></path>
        <path d="M76.2193798,35.0294574 L90.4414729,35.0294574 L90.4414729,31.1081395 L80.1992248,31.1081395 L80.1992248,27.0697674 L88.5100775,27.0697674 L88.5100775,23.1484496 L80.1992248,23.1484496 L80.1992248,19.1100775 L90.4414729,19.1100775 L90.4414729,15.1887597 L76.2193798,15.1887597 L76.2193798,35.0294574 L76.2193798,35.0294574 Z M85.5837209,12.672093 L88.1589147,9.21899225 L85.9934109,6 L83.3011628,9.62868217 L80.6089147,6 L78.4434109,9.21899225 L81.0186047,12.672093 L85.5837209,12.672093 L85.5837209,12.672093 Z M125.148062,15.1302326 L129.186434,15.1302326 L129.186434,35.0879845 L125.148062,35.0879845 L125.148062,15.1302326 L125.148062,15.1302326 Z M106.360853,19.1686047 L112.681783,19.1686047 L112.681783,35.0294574 L116.778682,35.0294574 L116.778682,19.1686047 L123.099612,19.1686047 L123.099612,15.1302326 L106.41938,15.1302326 L106.41938,19.1686047 L106.360853,19.1686047 Z M158.85969,15.1302326 L154.528682,15.1302326 L147.446899,35.0879845 L151.660853,35.0879845 L153.182558,30.874031 L160.264341,30.874031 L161.786047,35.0879845 L166,35.0879845 L158.85969,15.1302326 L158.85969,15.1302326 Z M154.528682,26.894186 L156.694186,20.8658915 L158.85969,26.894186 L154.528682,26.894186 L154.528682,26.894186 Z M43.5027132,14.8375969 C37.8255814,14.8375969 33.201938,19.4612403 33.201938,25.1383721 C33.201938,30.8155039 37.8255814,35.4391473 43.5027132,35.4391473 C49.179845,35.4391473 53.8034884,30.8155039 53.8034884,25.1383721 C53.8034884,19.4612403 49.179845,14.8375969 43.5027132,14.8375969 L43.5027132,14.8375969 Z M43.5027132,31.2251938 C40.1081395,31.2251938 37.3573643,28.4744186 37.3573643,25.1383721 C37.3573643,21.8023256 40.1081395,19.0515504 43.5027132,19.0515504 C46.8972868,19.0515504 49.648062,21.8023256 49.648062,25.1383721 C49.5895349,28.4744186 46.8387597,31.2251938 43.5027132,31.2251938 L43.5027132,31.2251938 Z M22.1403101,15.0717054 L15,15.0717054 L15,34.9709302 L22.1403101,34.9709302 C27.6418605,34.9709302 32.1484496,30.5228682 32.1484496,25.0213178 C32.0899225,19.5197674 27.6418605,15.0717054 22.1403101,15.0717054 L22.1403101,15.0717054 Z M22.1403101,30.9325581 L18.979845,30.9325581 L18.979845,19.2271318 L22.1403101,19.2271318 C25.3593023,19.2271318 28.0515504,21.8608527 28.0515504,25.079845 C28.0515504,28.2988372 25.4178295,30.9325581 22.1403101,30.9325581 L22.1403101,30.9325581 Z M64.6895349,24.4945736 L59.5976744,15.1302326 L55.0325581,15.1302326 L55.0325581,35.0879845 L59.0709302,35.0879845 L59.0709302,22.5046512 L64.6895349,32.8054264 L70.3081395,22.5046512 L70.3081395,35.0879845 L74.4050388,35.0879845 L74.4050388,15.1302326 L69.8399225,15.1302326 L64.6895349,24.4945736 L64.6895349,24.4945736 Z M147.154264,15.1302326 L142.237984,15.1302326 L135.624419,23.9093023 L135.624419,15.1302326 L131.644574,15.1302326 L131.644574,35.0879845 L135.624419,35.0879845 L135.624419,30.7569767 L137.614341,28.0647287 L142.296512,35.0294574 L147.212791,35.0294574 L140.131008,24.5531008 L147.154264,15.1302326 L147.154264,15.1302326 Z M102.556589,24.3775194 C101.034884,23.5581395 99.805814,23.2069767 98.7523256,22.9728682 C97.7573643,22.7387597 96.9965116,22.5631783 96.3527132,22.0364341 C96.0600775,21.7437984 95.4162791,20.6317829 96.1771318,19.6368217 C96.6453488,19.0515504 97.5232558,18.6418605 98.5182171,18.6418605 C99.4546512,18.6418605 100.274031,18.9930233 100.800775,19.5197674 C101.444574,20.222093 101.737209,20.8073643 101.737209,20.8073643 L101.854264,21.0414729 L105.6,19.5197674 L105.6,19.4612403 C105.482946,19.1100775 105.014729,17.7054264 103.434496,16.3593023 C102.205426,15.3058139 100.449612,14.7205426 98.6352713,14.7205426 C96.3527132,14.7205426 94.3627907,15.5399225 93.1337209,17.0031008 C91.846124,18.5248062 91.377907,20.3391473 91.7875969,22.0949612 C92.1972868,23.8507752 93.4263566,25.2554264 95.1236434,26.0748062 C96.4697674,26.7186047 97.2891473,26.894186 98.1085271,27.1282946 C98.7523256,27.303876 99.396124,27.4794574 100.274031,27.8306202 C101.210465,28.2403101 101.678682,28.8841085 101.561628,29.6449612 C101.386047,30.7569767 100.156977,31.4593023 99.1620155,31.5178295 L98.7523256,31.5178295 C97.5232558,31.5178295 95.8844961,31.1081395 95.0651163,29.2352713 L91.3193798,30.8155039 C91.6120155,31.4593023 92.255814,32.9810078 93.9531008,34.0930233 C95.2406977,34.9709302 96.9965116,35.4976744 98.7523256,35.4976744 C101.737209,35.4976744 104.195349,34.1515504 105.307364,31.8104651 C106.477907,29.0596899 105.482946,26.0162791 102.556589,24.3775194 L102.556589,24.3775194 Z" id="logo" fill="#FFFFFF" fill-rule="nonzero"></path>
    </g>
</svg>